<?xml version="1.0" encoding="UTF-8" standalone="no"?>
<svg xmlns:svg="http://www.w3.org/2000/svg" xmlns="http://www.w3.org/2000/svg" version="1.1" width="126" height="119" id="svg2" style="overflow:visible">
  <defs id="defs634">
    <radialGradient cx="64.568802" cy="7.2266002" r="104.221" fx="64.568802" fy="7.2266002" id="XMLID_61_" gradientUnits="userSpaceOnUse">
      <stop id="stop13" style="stop-color:#67c5d5" offset="0"/>
      <stop id="stop15" style="stop-color:#66c2d3" offset="0.1604"/>
      <stop id="stop17" style="stop-color:#62b9ce" offset="0.27950001"/>
      <stop id="stop19" style="stop-color:#5ca8c6" offset="0.38519999"/>
      <stop id="stop21" style="stop-color:#5392ba" offset="0.48320001"/>
      <stop id="stop23" style="stop-color:#4874aa" offset="0.57590002"/>
      <stop id="stop25" style="stop-color:#3a5097" offset="0.66460001"/>
      <stop id="stop27" style="stop-color:#2a2781" offset="0.74849999"/>
      <stop id="stop29" style="stop-color:#1b006d" offset="0.81459999"/>
      <stop id="stop31" style="stop-color:#596aad" offset="1"/>
    </radialGradient>
    <radialGradient cx="64.551804" cy="14.1748" r="52.231701" fx="64.551804" fy="14.1748" id="XMLID_62_" gradientUnits="userSpaceOnUse">
      <stop id="stop36" style="stop-color:#0f80bc" offset="0"/>
      <stop id="stop38" style="stop-color:#0a5f9e" offset="0.33759999"/>
      <stop id="stop40" style="stop-color:#00145a" offset="1"/>
    </radialGradient>
    <radialGradient cx="65.405296" cy="19.1201" r="57.382702" fx="65.405296" fy="19.1201" id="XMLID_65_" gradientUnits="userSpaceOnUse">
      <stop id="stop65" style="stop-color:#0f80bc" offset="0"/>
      <stop id="stop67" style="stop-color:#0b629b" offset="0.26429999"/>
      <stop id="stop69" style="stop-color:#031747" offset="0.84390002"/>
      <stop id="stop71" style="stop-color:#00022f" offset="1"/>
    </radialGradient>
    <linearGradient x1="76.371597" y1="16.591801" x2="93.231796" y2="18.029301" id="XMLID_69_" gradientUnits="userSpaceOnUse">
      <stop id="stop102" style="stop-color:#0f80bc" offset="0"/>
      <stop id="stop104" style="stop-color:#0a5f9e" offset="0.33759999"/>
      <stop id="stop106" style="stop-color:#00145a" offset="1"/>
    </linearGradient>
    <linearGradient x1="38.491699" y1="19.146999" x2="29.173901" y2="32.832401" id="XMLID_70_" gradientUnits="userSpaceOnUse">
      <stop id="stop111" style="stop-color:#0f80bc" offset="0"/>
      <stop id="stop113" style="stop-color:#0a5f9e" offset="0.33759999"/>
      <stop id="stop115" style="stop-color:#00145a" offset="1"/>
    </linearGradient>
    <linearGradient x1="62.651901" y1="34.546398" x2="62.651901" y2="11.8951" id="XMLID_71_" gradientUnits="userSpaceOnUse">
      <stop id="stop120" style="stop-color:#000000;stop-opacity:0" offset="0.0137"/>
      <stop id="stop122" style="stop-color:#c4e0e3;stop-opacity:0.2" offset="0.64999998"/>
      <stop id="stop124" style="stop-color:#c4e0e3" offset="0.82239997"/>
      <stop id="stop126" style="stop-color:#cde5e8" offset="0.84979999"/>
      <stop id="stop128" style="stop-color:#e8f4f7" offset="0.9443"/>
      <stop id="stop130" style="stop-color:#f2fafc" offset="1"/>
    </linearGradient>
  </defs>
  <ellipse cx="63.755" cy="59.375" rx="58.795" ry="58.795" id="ellipse33" style="fill:url(#XMLID_61_);stroke:#110070;stroke-width:1.12100005;stroke-miterlimit:4;stroke-opacity:1;stroke-dasharray:none"/>
  <path d="m 66.71875,18.25 c 0,0 -1.221,0.706 -1.375,1.875 -0.155,1.167 -1.29975,0.5445 -1.84375,0.8125 0.141,0.584 -0.03125,1.21875 -0.03125,1.21875 L 62.75,21.53125 c 10e-4,-0.001 -2.571,1.147 -2.75,2 -0.361,0.941 1.19575,2.492 1.96875,2 0.775,-0.495 1.875,-1.5 1.875,-1.5 0,0 1.1635,0.951 0.6875,1.625 -0.479,0.672 -2.385,1.431 0.375,1.125 2.831,-0.313 3.35775,-0.8975 3.34375,-1.4375 C 68.235,24.80575 68.385,22.884 68.875,22.75 68.89,21.76 66.953,21.83475 67.625,20.84375 68.297,19.85775 66.71875,18.25 66.71875,18.25 z M 105.375,43.625 c -0.292,0.094 -0.25475,0.3405 -0.59375,0.4375 -0.337,0.094 -0.941,0.14975 -1.25,-0.15625 -0.532,-0.531 -0.7485,-0.0012 -0.3125,0.71875 -0.629,-0.144 -1.06125,0.40625 -0.53125,0.40625 0.532,0 1.91325,0.5625 0.65625,0.5625 -0.38788,0 -0.51311,0.06913 -0.53125,0.15625 -4.3e-4,0.0021 -0.031,-0.0021 -0.0312,0 -0.20538,0.07187 -0.44925,0.197 -0.59375,0.4375 -0.29,0.48 -0.67875,-0.03125 -0.96875,-0.03125 -0.049,0.287 -0.25,0.5 -0.25,0.5 L 100.78125,46.25 c -0.001,-10e-4 -1.35375,-0.05475 -1.59375,0.28125 -0.337,0.334 0.03475,1.33125 0.46875,1.28125 0.433,-0.047 1.125,-0.21875 1.125,-0.21875 0,0 0.337,0.64975 0,0.84375 -0.337,0.19 -1.3345,0.12475 -0.0625,0.59375 1.304,0.479 1.653,0.33375 1.75,0.09375 0.097,-0.238 0.53825,-1.07925 0.78125,-1.03125 0.193,-0.431 -0.6715,-0.80375 -0.1875,-1.09375 0.26486,-0.159247 0.27052,-0.523516 0.21875,-0.84375 0.15705,0.05597 0.31675,0.075 0.4375,0.0625 0.483,-0.047 0.50575,-0.0815 0.84375,0.0625 0.34,0.143 1,-0.15625 1,-0.15625 0,0 0.2645,-0.81225 0.9375,-0.90625 0.29,-1.153 -0.838,-1.69075 -1.125,-1.59375 z M 49.84375,71.65625 c -0.17265,4.59e-4 -0.196062,0.829188 0.25,2.59375 -0.681,-1.268 -0.89725,0.8635 -0.78125,1.8125 0.115,0.953 -1.01775,3.4345 -1.09375,1.5625 -0.072,-1.879 -0.93925,-1.3095 -0.90625,0.9375 0.032,2.241 -0.4705,2.01075 -0.4375,2.34375 0.033,0.334 -1.03425,1.7675 -1.65625,1.6875 -0.622,-0.085 -1.21575,1.49025 -0.46875,2.53125 -0.643,0.052 -0.048,2.7825 1.125,3.1875 -0.338,2.937 0.21325,2.87175 0.53125,2.21875 0.17,-1.47 1.98475,-4.177 1.09375,-1.25 -0.885,2.909 0.7875,0.11275 1.4375,-0.65625 0.264,-1.671 1.625,-1.75 1.625,-1.75 0,0 0.5465,0.94475 1.8125,0.21875 0.386,1.808 0.9635,0.70125 1.5625,0.90625 0.601,0.205 1.39675,1.1215 1.46875,1.4375 0.081,0.059 0.0095,0.54875 -0.1875,0.09375 -0.014,-0.394 -1.11425,-0.097 -1.15625,0.375 -0.141,1.591 1.90025,1.1225 2.28125,0.1875 0.385,-0.936 1.51425,-0.0905 0.78125,0.5625 -0.733,0.655 0.15575,2.1095 1.09375,1.5625 -0.569,0.87 1.38175,1.368 2.46875,1 1.022,1.164 2.98925,1.11775 3.40625,0.21875 0.419,-0.903 0.54775,-0.85 2.09375,-0.875 1.552,-0.028 0.648,-2.25275 -0.75,-2.59375 -1.392,-0.344 -1.754,-1.95875 -1.625,-1.71875 0,0 -0.12475,-1.3595 -0.46875,-0.6875 C 62.99975,88.2335 62,87.09375 62,87.09375 l 0.5,-1.25 c 1.549,-1.063 -0.65625,-2.3125 -0.65625,-2.3125 0,0 0.443,-1.866 -0.625,-2.25 -1.062,-0.386 0.3145,-1.96675 -0.1875,-3.09375 -0.502,-1.122 -2.08325,-2.76175 -3.15625,-2.21875 0.521,1.062 -1.69125,1.853 -1.28125,0.375 0.408,-1.483 -0.4375,-1.21875 -0.4375,-1.21875 0,0 -1.2135,-1.53875 -2.4375,-0.09375 -0.102,-0.558 -0.7415,-1.54375 -2.0625,-1.21875 0,0 -0.057,-0.656 -1.25,-0.75 -0.20825,-0.9135 -0.428217,-1.406607 -0.5625,-1.40625 z m 18.71875,0.4375 c 0,0 -0.67875,0.05025 -0.96875,0.53125 -0.29,0.479 -0.67875,-0.03125 -0.96875,-0.03125 -0.049,0.288 -0.21875,0.5 -0.21875,0.5 l -0.1875,-0.40625 c -0.001,0 -1.35275,-0.05475 -1.59375,0.28125 -0.337,0.334 0.03575,1.32825 0.46875,1.28125 0.434,-0.049 1.09375,-0.21875 1.09375,-0.21875 0,0 0.337,0.65075 0,0.84375 -0.339,0.19 -1.30125,0.12675 -0.03125,0.59375 1.303,0.48 1.653,0.33375 1.75,0.09375 0.095,-0.24 0.508,-1.047 0.75,-1 0.195,-0.431 -0.6705,-0.837 -0.1875,-1.125 0.483,-0.291 0.09375,-1.34375 0.09375,-1.34375 z" id="path42" style="fill:url(#XMLID_62_)"/>
  <path d="m 90.165,47.314 c -0.042,-0.123 0.384,-0.62 0.27,0.024 -0.262,0.458 1.058,0.87 1.428,0.36 1.241,-1.7 -1.17,-2.522 -2.216,-1.732 -1.056,0.797 -1.638,-0.912 -0.425,-1.155 1.209,-0.245 1.311,-2.43 -0.021,-2.438 1.176,-0.58 -0.453,-2.318 -1.799,-2.615 -0.217,-1.87 -2.189,-3.059 -3.226,-2.38 -1.047,0.681 -1.137,0.561 -2.671,-0.37 -1.528,-0.927 -2.264,1.928 -1.14,3.175 1.131,1.256 0.311,3.281 0.358,2.935 0,0 -0.426,0.766 -0.398,1.053 -1.294,0.439 -1.672,-1.383 -2.475,-1.786 -0.585,0.763 -1.53,1.17 -1.53,1.17 l 0.071,-1.553 c 0,0 -4.017,-2.188 -5.251,-1.575 -1.521,0.47 -1.881,3.991 -0.5,4.506 1.383,0.521 -1.735,1.818 1.393,5.116 3.213,3.386 4.455,3.483 5.111,2.932 0.162,-0.139 0.442,-0.347 0.784,-0.578 0.031,0.13 0.083,0.255 0.163,0.373 0.804,1.209 -1.869,2.162 -2.242,3.894 -0.379,1.751 -0.03,5.007 1.556,5.118 0.302,-1.735 3.27,-1.122 1.655,0.45 -1.644,1.603 -0.491,1.886 -0.491,1.886 0,0 0.078,3.003 2.592,2.043 -0.073,0.172 -0.132,0.392 -0.167,0.632 -0.703,-0.142 -2.421,-0.357 -2.841,0.841 -0.53,1.512 -2.774,-0.512 -4.344,0.167 -1.563,0.674 -3.844,2.887 -3.076,4.443 1.476,-0.7 2.606,2.456 0.544,1.808 -2.069,-0.65 -1.667,0.583 -1.667,0.583 0,0 -2.154,1.699 -0.137,3.508 -0.775,0.118 -2.152,0.981 -1.688,2.874 0,0 -0.885,0.032 -1.004,1.726 -2.887,0.582 -2.711,1.478 1.633,0.496 -1.753,0.91 1.226,1.338 2.546,1.217 1.322,-0.12 4.792,1.591 2.185,1.608 -2.612,0.016 -1.834,1.294 1.294,1.355 3.123,0.064 2.795,0.788 3.259,0.756 0.464,-0.032 2.484,1.561 2.374,2.444 -0.113,0.884 2.116,1.801 3.566,0.788 0.074,0.919 3.886,0.202 4.45,-1.455 4.128,0.631 4.033,-0.139 3.114,-0.629 -2.067,-0.316 -5.86,-3.063 -1.746,-1.65 4.093,1.411 0.15,-1.11 -0.929,-2.079 -2.35,-0.457 -2.47,-2.416 -2.47,-2.416 0,0 1.298,-0.739 0.274,-2.586 2.539,-0.471 1.006,-1.364 1.291,-2.215 0.285,-0.854 1.574,-1.942 2.016,-2.03 0.084,-0.115 0.775,0.023 0.134,0.283 -0.554,0.006 -0.161,1.566 0.502,1.646 2.242,0.273 1.586,-2.654 0.269,-3.243 -1.32,-0.594 -0.135,-2.204 0.792,-1.12 0.927,1.082 2.993,-0.133 2.218,-1.504 1.232,0.854 1.896,-1.909 1.372,-3.495 1.648,-1.429 1.595,-4.278 0.32,-4.915 -0.627,-0.313 -0.93,-0.516 -1.082,-0.905 0.757,-0.358 1.761,-0.622 2.155,-0.269 0.641,0.579 2.425,-1.018 2.312,-2.885 0.751,0.412 1.947,-3.395 0.931,-4.727 2.326,-3.252 1.699,-3.547 0.921,-3.002 -1.17,1.622 -5.013,3.563 -2.034,0.688 2.892,-2.791 -0.769,-0.675 -1.994,-0.222 -1.441,1.805 -2.97,0.938 -2.97,0.938 0,0 0.065,-1.479 -1.796,-1.509 0.86,-2.373 -0.526,-1.516 -1.011,-2.164 -0.486,-0.647 -0.661,-2.229 -0.512,-2.634 z" id="path73" style="fill:url(#XMLID_65_)"/>
    <clipPath id="XMLID_68_">
      <ellipse cx="63.755" cy="59.375" rx="58.2345" ry="58.2345" id="XMLID_8_"/>
    </clipPath>
    <path d="m 65.061,1.002 c -0.912,0.203 0.613,3.503 0.613,3.503 0,0 -0.055,2.216 0.321,2.329 0.374,0.113 2.852,0.733 4.147,2.345 1.301,1.614 0.625,2.463 -0.458,1.997 -1.084,-0.465 -0.797,0.959 -0.797,0.959 0,0 3.27,1.063 0.8,0.995 -2.475,-0.066 1.666,1.741 1.393,1.93 -0.273,0.191 -0.429,1.231 -0.429,1.231 0,0 -2.183,0.182 -0.333,0.959 6.26,2.637 -0.669,1.925 -0.669,1.925 l -0.884,1.087 1.749,2.194 1.345,0.962 c 0,0 2.833,-0.945 3.716,-1.093 0.884,-0.146 3.114,-1.815 3.114,-1.815 0,0 0.669,0.478 0.169,-0.497 -0.501,-0.976 1.841,-0.54 2.425,0.186 l 4.134,1.867 c 0.054,0.144 0.146,0.274 0.292,0.375 0.806,0.565 -0.729,1.535 -0.573,2.562 0.156,1.016 1.093,2.704 2.121,2.526 -0.18,-0.969 1.851,-1.086 1.144,-0.006 -0.706,1.077 0.077,1.056 0.077,1.056 0,0 0.653,1.521 2.034,0.676 -0.056,0.464 0.227,1.397 1.413,1.459 0,0 -0.126,0.506 0.848,0.865 -0.132,1.737 0.424,1.792 0.561,-0.846 0.245,1.157 0.992,-0.471 1.141,-1.25 0.15,-0.784 1.756,-2.505 1.322,-0.984 -0.431,1.508 4.735,2.06 5.308,0.259 0.578,-1.815 2.637,-2.763 2.699,-3.038 0.062,-0.281 -4.583,-0.712 -4.07,-0.493 0.514,0.219 1.47,-0.948 1.115,-1.986 0.576,0.116 0.83,-2.301 -0.083,-2.927 1.143,-2.405 0.651,-2.48 0.182,-2.001 -0.57,1.205 -2.922,3.023 -1.327,0.783 1.609,-2.263 -0.653,-0.284 -1.438,0.208 -0.689,1.341 -1.899,1.08 -1.899,1.08 0,0 -0.222,-0.911 -1.516,-0.607 0.151,-1.612 -0.653,-0.838 -1.12,-1.154 -0.285,-0.193 -0.558,-0.627 -0.726,-0.999 1.115,0.452 2.612,0.933 2.354,0.104 -0.167,-0.542 2.112,0.643 2.192,0.396 l 2.848,-0.396 2.769,-1.75 C 85.388,0.164 65.061,1.002 65.061,1.002 z" clip-path="url(#XMLID_68_)" id="path108" style="fill:url(#XMLID_69_)"/>
    <path d="m 38.752,6.095 c -10.573,4.747 -18.551,14.531 -18.551,14.531 0,0 0.938,2.145 1.265,1.987 0.33,-0.156 -2.361,5.628 -0.386,5.954 1.985,0.325 7.696,-3.578 6.637,-3.22 -1.056,0.356 0.595,-2.112 0.595,-2.112 0,0 2.972,-1.318 1.214,0.202 -1.743,1.511 2.318,0.187 2.255,0.496 -0.064,0.311 0.525,1.147 0.525,1.147 0,0 -1.393,1.494 0.406,0.892 6.172,-2.075 0.812,1.779 0.812,1.779 l 0.106,1.312 2.67,0.464 1.578,-0.15 c 0,0 1.381,-2.436 1.914,-3.098 0.535,-0.663 1.028,-3.284 1.028,-3.284 0,0 0.803,-0.084 -0.213,-0.468 -1.016,-0.385 0.972,-1.583 1.886,-1.434 l 4.303,-1.336 c 0.138,0.068 0.292,0.103 0.47,0.082 0.985,-0.114 0.489,1.603 1.294,2.25 0.796,0.644 2.627,1.264 3.283,0.469 -0.784,-0.594 0.674,-2.011 0.86,-0.751 0.187,1.249 0.767,0.723 0.767,0.723 0,0 1.543,-2.654 2.036,-4.177 0.27,0.377 2.788,-3.309 2.025,-5.067 -0.771,-1.78 0.479,-3.456 0.34,-3.715 -0.143,-0.256 -0.896,0.528 -0.34,0.34 0.561,-0.192 -1.589,0.772 -1.874,-2.061 -0.288,-2.89 -0.707,0.243 -0.985,1.169 0.377,1.508 4.29,-6.093 4.29,-6.093 l 5.044,-2.057 c 0,0.004 -11.481,-0.957 -25.254,5.226 z" clip-path="url(#XMLID_68_)" id="path117" style="fill:url(#XMLID_70_)"/>
  <ellipse cx="62.652" cy="23.271" rx="30.825" ry="19.971" id="ellipse132" style="opacity:0.5;fill:url(#XMLID_71_)"/>
</svg>